<?xml version="1.0" standalone="no"?><!DOCTYPE svg PUBLIC "-//W3C//DTD SVG 1.1//EN" "http://www.w3.org/Graphics/SVG/1.1/DTD/svg11.dtd"><svg t="1756812835887" class="icon" viewBox="0 0 1024 1024" version="1.1" xmlns="http://www.w3.org/2000/svg" p-id="5605" xmlns:xlink="http://www.w3.org/1999/xlink" width="200" height="200"><path d="M685.118 654.852c23.241 0 41.05-18.285 41.05-42.205 0-23.955-17.809-42.24-41.05-42.24-23.271 0-41.051 18.285-41.051 42.24 0 23.919 17.781 42.205 41.051 42.205z m0 28.138c-38.317 0-68.411-30.959-68.411-70.344 0-39.42 30.094-70.379 68.411-70.379 38.288 0 68.417 30.959 68.417 70.344 0 37.993-31.464 70.379-68.417 70.379z m113.566-139.33l-8.224-12.666-25.968 2.813c-21.914 2.82-43.813-11.273-50.637-32.352l-8.223-25.347a100.939 100.939 0 0 0-41.059 0l-9.578 26.71c-6.832 21.135-30.102 35.209-50.609 30.989l-24.64-4.213c-6.823 8.434-10.95 18.285-15.047 28.139l17.81 21.135c13.654 16.887 13.654 43.633 0 61.912l-17.81 21.105c2.727 5.641 4.097 11.281 8.194 16.922 2.756 4.184 4.125 8.426 6.823 11.246l27.396-4.242c21.879-2.82 43.785 11.275 50.638 32.352l8.194 26.775c13.684 2.814 27.367 2.814 41.051 0l9.586-28.139c6.824-21.135 30.094-35.207 50.637-30.988l24.634 4.242c5.46-8.461 10.928-18.314 15.054-28.168l-16.446-19.707c-13.654-16.893-13.654-43.633-1.37-60.518l17.816-22.506c-3.029-5-5.777-10.172-8.222-15.494z m35.56 14.072l2.756 7.033-27.367 35.201a21.61 21.61 0 0 0 0 25.318l26.004 32.359-2.734 7.061a153.193 153.193 0 0 1-25.996 49.273l-5.496 7.033-41.043-7.033a19.327 19.327 0 0 0-20.516 12.645l-13.684 42.234-6.83 1.4a140.697 140.697 0 0 1-68.439 0l-8.194-1.4-13.712-42.234c-3.052-8.482-11.563-13.732-20.508-12.645l-42.449 7.033-5.461-5.641c-5.461-7.033-10.921-14.066-15.047-22.527a102.926 102.926 0 0 1-12.32-28.139l-2.727-7.033 27.367-33.779a21.638 21.638 0 0 0 0-25.348l-27.367-33.779 2.727-7.033c6.824-18.285 15.076-35.172 27.367-50.666l5.496-5.641 41.043 7.062c8.195 1.399 17.811-4.241 20.516-12.674l15.075-42.233 6.823-1.399a179.164 179.164 0 0 1 67.055 0l8.223 1.399 13.648 40.813c2.762 8.454 12.349 14.095 20.543 14.095l42.443-5.641 5.467 5.641c5.453 7.042 10.921 14.073 15.047 22.506 5.461 8.453 9.558 16.914 12.32 26.738h-0.03z m-385.865 84.446l36.953-64.701-36.953-61.947c-3.693-6.68-1.955-15.063 4.098-19.715 6.824-4.213 15.076-1.421 19.172 4.221l45.141 75.985-45.141 78.861c-4.096 7.033-12.319 8.461-19.172 5.641-5.468-2.82-6.831-12.674-4.098-18.314v-0.031zM322.494 515.529l-36.946 61.881 36.946 64.74c4.097 7.031 1.371 15.494-5.489 19.705-6.824 4.213-15.047 1.43-19.144-5.641l-45.147-78.805 45.147-75.984c4.097-7.062 12.32-8.462 19.144-4.249 6.831 2.828 8.223 11.281 5.489 18.323v0.03z m84.835-4.25c4.09-7.032 12.313-8.432 19.173-5.641 6.831 4.249 8.194 12.704 5.46 19.743l-68.411 122.438c-4.097 7.033-12.32 8.455-19.18 5.643-6.831-2.828-8.187-12.682-5.46-19.715l68.418-122.468z m299.667-166.071c-8.195 0-13.655-5.641-13.655-14.065 0-8.461 5.46-14.065 13.655-14.065 8.215 0 13.684 5.633 13.684 14.065 0 8.425-5.469 14.065-13.655 14.065h-0.029z m-41.051 0c-8.194 0-13.654-5.641-13.654-14.065 0-8.461 5.46-14.065 13.654-14.065 8.223 0 13.684 5.633 13.684 14.065 0 8.425-5.461 14.065-13.654 14.065h-0.03z m-41.05 0c-8.188 0-13.654-5.641-13.654-14.065 0-8.461 5.467-14.065 13.654-14.065 8.223 0 13.684 5.633 13.684 14.065 0 8.425-5.461 14.065-13.654 14.065h-0.03z m136.828 35.202v-60.548c0-23.919-17.773-42.205-41.043-42.205H255.446c-23.27 0-41.05 18.286-41.05 42.233v60.52h547.327z m0 28.117H214.396v291.35c0 23.955 17.81 42.234 41.05 42.234h328.397c8.223 0 13.684 5.641 13.684 14.072 0 8.461-5.461 14.074-13.654 14.074H255.418c-38.324 0-68.418-30.961-68.418-70.352V319.862c0-39.385 30.123-70.344 68.446-70.344H720.68c38.316 0 68.41 30.959 68.41 70.344v121.074c0 8.433-5.461 14.065-13.647 14.065-8.224 0-13.72-5.633-13.72-14.065v-32.409z" p-id="5606" fill="#ffffff"></path></svg>